
<svg width="938.19159" height="761.03649" xmlns="http://www.w3.org/2000/svg">

 <g>
  <title>background</title>
  <rect fill="none" id="canvas_background" height="602" width="802" y="-1" x="-1"/>
 </g>
 <g>
  <title>Layer 1</title>
  <rect id="svg_1" fill="#3f3d56" height="2" width="937.72423" y="758.44705"/>
  <path id="svg_18" fill="#3f3d56" d="m626.82968,196.07617l12.41349,-9.92842c-9.64348,-1.06394 -13.60581,4.19541 -15.22744,8.35823c-7.53388,-3.12835 -15.73541,0.97151 -15.73541,0.97151l24.83709,9.01675a18.79465,18.79465 0 0 0 -6.28773,-8.41807z"/>
  <path id="svg_19" fill="#3f3d56" d="m323.42661,108.42639l12.41348,-9.92842c-9.64348,-1.06393 -13.60581,4.19542 -15.22743,8.35824c-7.53389,-3.12835 -15.73542,0.97151 -15.73542,0.97151l24.8371,9.01674a18.79483,18.79483 0 0 0 -6.28773,-8.41807z"/>
  <path id="svg_20" fill="#3f3d56" d="m818.31079,69.3211l12.41348,-9.92841c-9.64348,-1.06394 -13.60581,4.19541 -15.22744,8.35823c-7.53388,-3.12835 -15.73541,0.97151 -15.73541,0.97151l24.8371,9.01674a18.7949,18.7949 0 0 0 -6.28773,-8.41807z"/>
  <path id="svg_21" fill="#ffb9b9" d="m798.68652,525.96565l-0.21138,16.91339a11.0384,11.0384 0 0 1 -13.33074,10.65962l0,0a11.0384,11.0384 0 0 1 -7.64863,-15.594l5.65225,-11.7156l11.71725,-85.025l-4.49739,-56.81539l21.99782,-1.05418l4.6785,64.98836l-18.35768,77.6428z"/>
  <polygon id="svg_22" fill="#ffb9b9" points="690.906 615.823 669.756 729.705 680.331 728.078 719.376 613.383 690.906 615.823"/>
  <polygon id="svg_23" fill="#ffb9b9" points="792.179 617.043 805.601 733.772 816.989 732.145 819.836 616.23 792.179 617.043"/>
  <path id="svg_24" fill="#e6e6e6" d="m912.56821,582.87856c-30.3204,24.35925 -65.82375,60.13557 -101.17188,46.80734c-36.88693,-13.90847 -79.45811,-14.78814 -127.40493,-8.57563c11.45139,-71.83027 25.59279,-139.79403 43.92579,-201.73327l61.008,9.76129c0.94385,1.04272 -1.33391,6.68349 -0.40672,7.72768c17.14911,19.3131 34.64046,34.28155 45.20984,54.17363a263.09034,263.09034 0 0 0 62.09993,77.6744l16.73997,14.16456z"/>
  <path id="svg_25" opacity="0.5" fill="#e6e6e6" d="m938.19159,595.48689c-30.3204,25.04776 -93.88745,66.8633 -129.23558,53.15835c-36.88693,-14.30159 -80.67827,-13.18034 -128.6251,-6.79223q3.41266,-22.01133 7.281,-43.74258c10.39163,-58.36708 199.81766,-37.86485 225.363,-15.63859l25.21668,13.01505z"/>
  <path id="svg_26" fill="#2f2e41" d="m816.08958,386.97609c-11.40621,-3.33493 -23.03457,-1.67947 -34.81756,3.44321l4.26832,-32.07389a13.42176,13.42176 0 0 1 11.69123,-14.95333l0,0a13.42177,13.42177 0 0 1 14.95334,11.69123l3.90467,31.89278z"/>
  <circle id="svg_27" fill="#ffb9b9" r="22.77634" cy="296.95419" cx="764.1153"/>
  <path id="svg_28" fill="#ffb9b9" d="m806.41421,360.40255l-50.0266,-11.79488c7.42642,-10.67621 5.90678,-23.19 0,-36.60483l24.40318,-4.8806c2.70107,9.25875 5.978,17.73139 10.57473,24.40322l15.04869,28.87709z"/>
  <path id="svg_29" fill="#2f2e41" d="m788.92523,432.39205l-61.82144,-8.94781l2.05584,-11.57777c-0.97509,-30.16344 3.99581,-54.85253 13.39953,-75.46037l54.50052,3.25376l0,0a40.50556,40.50556 0 0 1 11.71081,48.08038l-19.03182,37.33085l-0.81344,7.32096z"/>
  <path id="svg_30" fill="#2f2e41" d="m681.76594,759.07642c-2.85281,1.302 -5.24242,-9.24676 -7.64881,-6.882c-6.731,6.61469 -17.03824,8.05508 -26.02269,5.16711l3.14439,-0.03515a4.20762,4.20762 0 0 1 -2.65204,-5.48314l0,0a4.20763,4.20763 0 0 1 2.91922,-2.60459l7.15843,-1.78961l11.23977,-19.76649l12.24936,-1.55031l0.30939,0.506a31.58354,31.58354 0 0 1 3.38457,25.82571c-1.01874,3.26402 -2.40535,5.84744 -4.08159,6.61247z"/>
  <path id="svg_31" fill="#2f2e41" d="m816.79709,759.07642c-2.85282,1.302 -5.24243,-9.24676 -7.64882,-6.882c-6.731,6.61469 -17.03824,8.05508 -26.02269,5.16711l3.1444,-0.03515a4.20761,4.20761 0 0 1 -2.6521,-5.48314l0,0a4.20763,4.20763 0 0 1 2.91922,-2.60459l7.15843,-1.78961l11.23977,-19.76649l12.24936,-1.55031l0.30939,0.506a31.58354,31.58354 0 0 1 3.38457,25.82571c-1.01869,3.26402 -2.4053,5.84744 -4.08153,6.61247z"/>
  <path id="svg_32" fill="#2f2e41" d="m792.46498,392.94018l-0.58335,0c-10.99942,-9.531 -20.55808,-20.21545 -12.8387,-33.59175c-6.54685,-16.61653 -13.84548,-33.87222 -13.4044,-44.54745a31.30614,31.30614 0 0 0 -7.11173,-21.76562c-6.95679,-8.12637 -8.50514,-11.75564 -21.21085,-8.68247l0,0a24.07552,24.07552 0 0 1 24.94809,-24.394l7.93809,0.28866c6.07248,0.22081 25.47968,2.70318 29.64637,6.71041a19.33222,19.33222 0 0 1 5.5343,16.25539c-0.77881,6.62568 1.3115,12.4758 6.89623,17.3813c10.692,11.05631 15.10194,22.52841 9.0399,34.6936c-4.57574,12.87865 -4.35717,23.47924 7.44566,28.57533l0,0l0,0c3.8332,14.71117 -21.09727,29.0766 -36.29961,29.0766z"/>
  <ellipse id="svg_33" fill="#3f3d56" transform="rotate(-42.766258239746094 -273.665771484375,608.9822998046875) " ry="15.87792" rx="7.78175" cy="1130.51458" cx="521.32225"/>
  <circle id="svg_34" fill="#4071fe" r="22.82838" cy="390.80406" cx="695.70128"/>
  <path id="svg_35" fill="#3f3d56" d="m734.03629,536.27251a120.26458,120.26458 0 0 1 -28.32994,-17.97493c-17.27569,-14.93614 -29.82021,-36.372 -30.75373,-59.53895c-0.89589,-22.2329 8.52533,-43.134 18.4908,-62.45411q1.88055,-3.64579 3.80009,-7.27128c0.48628,-0.92285 1.99541,-0.303 1.5061,0.62561c-10.33838,19.62013 -21.18589,40.3541 -22.16671,62.97818c-1.03383,23.84711 10.61711,46.57835 27.95481,62.44419a117.26593,117.26593 0 0 0 30.03393,19.64334"/>
  <rect id="svg_36" fill="#3f3d56" transform="rotate(-13.007909774780273 -215.05143737792957,126.87117004394531) " height="15.27261" width="1.08699" y="586.4603" x="603.48689"/>
  <ellipse id="svg_37" fill="#3f3d56" transform="rotate(-7.135280132293701 -194.69233703613273,38.19292831420905) " ry="15.87792" rx="7.78175" cy="603.58223" cx="636.91592"/>
  <path id="svg_38" fill="#ffb9b9" d="m727.91719,509.66891l-2.26518,16.76233a11.0384,11.0384 0 0 1 -14.52733,8.96062l0,0a11.03839,11.03839 0 0 1 -5.6969,-16.408l7.03407,-10.94188l21.96289,-82.97095l2.44032,-56.94084l21.9629,1.62688l-3.25376,65.07525l-27.65701,74.83659z"/>
  <path id="svg_39" fill="#2f2e41" d="m761.67497,380.33185c-10.91641,-4.69632 -22.65976,-4.46625 -34.97794,-0.81344l8.1344,-31.31748a13.42176,13.42176 0 0 1 13.42176,-13.42175l0,0a13.42175,13.42175 0 0 1 13.42175,13.42175l0.00003,32.13092z"/>
 </g>
</svg>